<?xml version="1.0" encoding="UTF-8" standalone="no"?>
<!-- Created with Inkscape (http://www.inkscape.org/) -->

<svg
   xmlns:dc="http://purl.org/dc/elements/1.1/"
   xmlns:cc="http://creativecommons.org/ns#"
   xmlns:rdf="http://www.w3.org/1999/02/22-rdf-syntax-ns#"
   xmlns:svg="http://www.w3.org/2000/svg"
   xmlns="http://www.w3.org/2000/svg"
   xmlns:sodipodi="http://sodipodi.sourceforge.net/DTD/sodipodi-0.dtd"
   xmlns:inkscape="http://www.inkscape.org/namespaces/inkscape"
   width="47.625mm"
   height="14.11111mm"
   viewBox="0 0 47.625 14.11111"
   version="1.1"
   id="svg8"
   inkscape:version="0.92.3 (2405546, 2018-03-11)"
   sodipodi:docname="play.svg">
  <defs
     id="defs2">
    <clipPath
       id="clipPath36"
       clipPathUnits="userSpaceOnUse">
      <path
         inkscape:connector-curvature="0"
         id="path34"
         d="m 205.098,176.105 -0.743,0.711 c -2.91,3.079 -4.628,7.86 -4.628,14.051 v -1.457 0 221.16 c 0,0.02 0,0.035 0,0.051 0,-0.019 0,-0.035 0,-0.055 v -1.461 c 0,6.704 2.003,11.754 5.359,14.782 L 328.984,299.992 205.098,176.105 m -5.371,234.528 c 0,0.551 0.015,1.086 0.043,1.613 -0.028,-0.523 -0.043,-1.062 -0.043,-1.613 m 0.043,1.637 c 0,0.007 0,0.015 0.003,0.023 -0.003,-0.008 -0.003,-0.016 -0.003,-0.023 m 0.003,0.07 c 0,0.004 0,0.008 0,0.012 0,-0.004 0,-0.008 0,-0.012" />
    </clipPath>
    <linearGradient
       id="linearGradient50"
       spreadMethod="pad"
       gradientTransform="matrix(-5.9204934,5.9204934,5.9204934,5.9204934,-99.654757,144.85037)"
       gradientUnits="userSpaceOnUse"
       y2="0"
       x2="1"
       y1="0"
       x1="0">
      <stop
         id="stop38"
         offset="0"
         style="stop-opacity:1;stop-color:#00a0ff" />
      <stop
         id="stop40"
         offset="0.00657445"
         style="stop-opacity:1;stop-color:#00a1ff" />
      <stop
         id="stop42"
         offset="0.2601"
         style="stop-opacity:1;stop-color:#00beff" />
      <stop
         id="stop44"
         offset="0.5122"
         style="stop-opacity:1;stop-color:#00d2ff" />
      <stop
         id="stop46"
         offset="0.7604"
         style="stop-opacity:1;stop-color:#00dfff" />
      <stop
         id="stop48"
         offset="1"
         style="stop-opacity:1;stop-color:#00e3ff" />
    </linearGradient>
    <clipPath
       id="clipPath60"
       clipPathUnits="userSpaceOnUse">
      <path
         inkscape:connector-curvature="0"
         id="path58"
         d="m 370.277,257.215 v 0 l 0.942,0.535 48.929,27.801 c 4.665,2.652 7.774,5.867 9.325,9.269 -1.547,-3.402 -4.657,-6.621 -9.325,-9.273 l -48.929,-27.801 -0.942,-0.531 m 0.012,1.465 -41.305,41.312 41.301,41.305 49.863,-28.328 c 6.332,-3.598 9.887,-8.235 10.481,-12.973 0,-0.004 0,-0.012 0,-0.019 -0.594,-4.727 -4.149,-9.368 -10.481,-12.965 L 370.289,258.68" />
    </clipPath>
    <linearGradient
       id="linearGradient70"
       spreadMethod="pad"
       gradientTransform="matrix(-8.5361644,0,0,8.5361644,-95.409217,148.83383)"
       gradientUnits="userSpaceOnUse"
       y2="0"
       x2="1"
       y1="0"
       x1="0">
      <stop
         id="stop62"
         offset="0"
         style="stop-opacity:1;stop-color:#ffe000" />
      <stop
         id="stop64"
         offset="0.4087"
         style="stop-opacity:1;stop-color:#ffbd00" />
      <stop
         id="stop66"
         offset="0.7754"
         style="stop-opacity:1;stop-color:#ffa500" />
      <stop
         id="stop68"
         offset="1"
         style="stop-opacity:1;stop-color:#ff9c00" />
    </linearGradient>
    <clipPath
       id="clipPath80"
       clipPathUnits="userSpaceOnUse">
      <path
         inkscape:connector-curvature="0"
         id="path78"
         d="m 213.93,171.387 c -3.461,0 -6.481,1.125 -8.836,3.25 l 0.004,0.004 c 2.355,-2.125 5.379,-3.254 8.84,-3.254 0.3,0 0.605,0.008 0.914,0.023 -0.313,-0.015 -0.622,-0.023 -0.922,-0.023 m 0.004,1.465 c -3.461,-0.004 -6.481,1.125 -8.836,3.25 v 0 0.003 l 123.886,123.887 41.305,-41.312 v 0 L 225.137,176.207 c -4.016,-2.277 -7.821,-3.355 -11.203,-3.355 m -8.871,1.812 c -0.219,0.199 -0.434,0.41 -0.645,0.629 l 0.645,-0.629" />
    </clipPath>
    <linearGradient
       id="linearGradient86"
       spreadMethod="pad"
       gradientTransform="matrix(-8.028623,8.028623,8.028623,8.028623,-98.586828,149.64335)"
       gradientUnits="userSpaceOnUse"
       y2="0"
       x2="1"
       y1="0"
       x1="0">
      <stop
         id="stop82"
         offset="0"
         style="stop-opacity:1;stop-color:#ff3a44" />
      <stop
         id="stop84"
         offset="1"
         style="stop-opacity:1;stop-color:#c31162" />
    </linearGradient>
    <clipPath
       id="clipPath96"
       clipPathUnits="userSpaceOnUse">
      <path
         inkscape:connector-curvature="0"
         id="path94"
         d="m 328.984,299.992 v 0 L 205.086,423.887 c 2.355,2.121 5.371,3.246 8.828,3.246 3.391,0 7.199,-1.082 11.223,-3.363 l 145.148,-82.473 -41.301,-41.305 m 42.235,42.238 -146.082,83 c -4.024,2.282 -7.832,3.364 -11.223,3.364 -0.016,0 -0.027,0 -0.043,0 0.02,0 0.035,0 0.059,0 3.383,0 7.187,-1.078 11.207,-3.36 L 371.219,342.23 M 213.84,428.594 v 0 0" />
    </clipPath>
    <linearGradient
       id="linearGradient108"
       spreadMethod="pad"
       gradientTransform="matrix(3.5851044,3.5851044,3.5851044,-3.5851044,-104.77092,141.83994)"
       gradientUnits="userSpaceOnUse"
       y2="0"
       x2="1"
       y1="0"
       x1="0">
      <stop
         id="stop98"
         offset="0"
         style="stop-opacity:1;stop-color:#32a071" />
      <stop
         id="stop100"
         offset="0.0685"
         style="stop-opacity:1;stop-color:#2da771" />
      <stop
         id="stop102"
         offset="0.4762"
         style="stop-opacity:1;stop-color:#15cf74" />
      <stop
         id="stop104"
         offset="0.8009"
         style="stop-opacity:1;stop-color:#06e775" />
      <stop
         id="stop106"
         offset="1"
         style="stop-opacity:1;stop-color:#00f076" />
    </linearGradient>
    <clipPath
       id="clipPath120"
       clipPathUnits="userSpaceOnUse">
      <path
         inkscape:connector-curvature="0"
         id="path118"
         d="m 370.277,257.215 v 0 l 0.942,0.535 -0.942,-0.535" />
    </clipPath>
    <linearGradient
       id="linearGradient130"
       spreadMethod="pad"
       gradientTransform="matrix(-8.5361644,0,0,8.5361644,-95.409217,148.83383)"
       gradientUnits="userSpaceOnUse"
       y2="0"
       x2="1"
       y1="0"
       x1="0">
      <stop
         id="stop122"
         offset="0"
         style="stop-opacity:1;stop-color:#ccb300" />
      <stop
         id="stop124"
         offset="0.4087"
         style="stop-opacity:1;stop-color:#cc9700" />
      <stop
         id="stop126"
         offset="0.7754"
         style="stop-opacity:1;stop-color:#cc8400" />
      <stop
         id="stop128"
         offset="1"
         style="stop-opacity:1;stop-color:#cc7d00" />
    </linearGradient>
    <clipPath
       id="clipPath140"
       clipPathUnits="userSpaceOnUse">
      <path
         inkscape:connector-curvature="0"
         id="path138"
         d="m 213.938,171.387 c -3.461,0 -6.485,1.129 -8.84,3.254 l -0.004,-0.004 c -0.008,0.008 -0.02,0.019 -0.031,0.027 l -0.645,0.629 c -0.02,0.02 -0.039,0.043 -0.063,0.066 l 0.743,0.743 c 2.355,-2.125 5.375,-3.254 8.836,-3.25 3.382,0 7.187,1.078 11.203,3.355 l 145.152,82.473 0.93,-0.93 -0.942,-0.535 -145.14,-82.469 c -3.66,-2.074 -7.141,-3.156 -10.285,-3.336 -0.309,-0.015 -0.614,-0.023 -0.914,-0.023" />
    </clipPath>
    <linearGradient
       id="linearGradient146"
       spreadMethod="pad"
       gradientTransform="matrix(-8.028623,8.028623,8.028623,8.028623,-98.586828,149.64335)"
       gradientUnits="userSpaceOnUse"
       y2="0"
       x2="1"
       y1="0"
       x1="0">
      <stop
         id="stop142"
         offset="0"
         style="stop-opacity:1;stop-color:#cc2e36" />
      <stop
         id="stop144"
         offset="1"
         style="stop-opacity:1;stop-color:#9c0e4e" />
    </linearGradient>
    <clipPath
       id="clipPath158"
       clipPathUnits="userSpaceOnUse">
      <path
         inkscape:connector-curvature="0"
         id="path156"
         d="m 204.355,175.359 v 0 c -2.91,3.079 -4.628,7.856 -4.628,14.051 v 1.457 c 0,-6.191 1.718,-10.972 4.628,-14.051 l 0.743,-0.711 -0.743,-0.746" />
    </clipPath>
    <linearGradient
       id="linearGradient172"
       spreadMethod="pad"
       gradientTransform="matrix(-5.9204934,5.9204934,5.9204934,5.9204934,-99.654757,144.85037)"
       gradientUnits="userSpaceOnUse"
       y2="0"
       x2="1"
       y1="0"
       x1="0">
      <stop
         id="stop160"
         offset="0"
         style="stop-opacity:1;stop-color:#008de0" />
      <stop
         id="stop162"
         offset="0.00657445"
         style="stop-opacity:1;stop-color:#008de0" />
      <stop
         id="stop164"
         offset="0.2601"
         style="stop-opacity:1;stop-color:#00a7e0" />
      <stop
         id="stop166"
         offset="0.5122"
         style="stop-opacity:1;stop-color:#00b8e0" />
      <stop
         id="stop168"
         offset="0.7604"
         style="stop-opacity:1;stop-color:#00c4e0" />
      <stop
         id="stop170"
         offset="1"
         style="stop-opacity:1;stop-color:#00c7e0" />
    </linearGradient>
    <clipPath
       id="clipPath182"
       clipPathUnits="userSpaceOnUse">
      <path
         inkscape:connector-curvature="0"
         id="path180"
         d="m 204.355,175.359 v 0 0 l 0.743,0.746 v -0.003 l -0.743,-0.743" />
    </clipPath>
    <linearGradient
       id="linearGradient188"
       spreadMethod="pad"
       gradientTransform="matrix(-8.028623,8.028623,8.028623,8.028623,-98.586828,149.64335)"
       gradientUnits="userSpaceOnUse"
       y2="0"
       x2="1"
       y1="0"
       x1="0">
      <stop
         id="stop184"
         offset="0"
         style="stop-opacity:1;stop-color:#e0333c" />
      <stop
         id="stop186"
         offset="1"
         style="stop-opacity:1;stop-color:#ab0f56" />
    </linearGradient>
    <clipPath
       id="clipPath200"
       clipPathUnits="userSpaceOnUse">
      <path
         inkscape:connector-curvature="0"
         id="path198"
         d="m 371.219,257.75 v 0 l -0.93,0.93 49.859,28.332 c 6.332,3.597 9.887,8.238 10.481,12.965 0,-1.735 -0.387,-3.469 -1.156,-5.157 -1.551,-3.402 -4.66,-6.617 -9.325,-9.269 L 371.219,257.75" />
    </clipPath>
    <linearGradient
       id="linearGradient210"
       spreadMethod="pad"
       gradientTransform="matrix(-8.5361644,0,0,8.5361644,-95.409217,148.83383)"
       gradientUnits="userSpaceOnUse"
       y2="0"
       x2="1"
       y1="0"
       x1="0">
      <stop
         id="stop202"
         offset="0"
         style="stop-opacity:1;stop-color:#e0c500" />
      <stop
         id="stop204"
         offset="0.4087"
         style="stop-opacity:1;stop-color:#e0a600" />
      <stop
         id="stop206"
         offset="0.7754"
         style="stop-opacity:1;stop-color:#e09100" />
      <stop
         id="stop208"
         offset="1"
         style="stop-opacity:1;stop-color:#e08900" />
    </linearGradient>
    <clipPath
       id="clipPath222"
       clipPathUnits="userSpaceOnUse">
      <path
         inkscape:connector-curvature="0"
         id="path220"
         d="m 430.629,299.996 c -0.594,4.738 -4.149,9.375 -10.481,12.973 l -49.863,28.328 0.93,0.93 h 0.004 l 48.929,-27.801 c 6.981,-3.969 10.477,-9.199 10.481,-14.43" />
    </clipPath>
    <linearGradient
       id="linearGradient232"
       spreadMethod="pad"
       gradientTransform="matrix(-8.5361644,0,0,8.5361644,-95.409217,148.83383)"
       gradientUnits="userSpaceOnUse"
       y2="0"
       x2="1"
       y1="0"
       x1="0">
      <stop
         id="stop224"
         offset="0"
         style="stop-opacity:1;stop-color:#ffe840" />
      <stop
         id="stop226"
         offset="0.4087"
         style="stop-opacity:1;stop-color:#ffce40" />
      <stop
         id="stop228"
         offset="0.7754"
         style="stop-opacity:1;stop-color:#ffbc40" />
      <stop
         id="stop230"
         offset="1"
         style="stop-opacity:1;stop-color:#ffb540" />
    </linearGradient>
    <clipPath
       id="clipPath244"
       clipPathUnits="userSpaceOnUse">
      <path
         inkscape:connector-curvature="0"
         id="path242"
         d="m 199.727,409.105 v 1.461 c 0,0.02 0,0.036 0,0.055 0,0.004 0,0.008 0,0.012 0,0.551 0.015,1.09 0.043,1.613 0,0.008 0,0.016 0,0.024 0,0.007 0,0.015 0.003,0.023 0,0.016 0,0.031 0,0.047 0,0.004 0,0.008 0,0.012 0.301,5.332 1.957,9.492 4.582,12.269 v 0 0 l 0.731,-0.734 c -3.356,-3.028 -5.359,-8.078 -5.359,-14.782 m 5.339,16.215 0.028,0.028 c -0.008,-0.012 -0.02,-0.02 -0.028,-0.028" />
    </clipPath>
    <linearGradient
       id="linearGradient258"
       spreadMethod="pad"
       gradientTransform="matrix(-5.9204934,5.9204934,5.9204934,5.9204934,-99.654757,144.85037)"
       gradientUnits="userSpaceOnUse"
       y2="0"
       x2="1"
       y1="0"
       x1="0">
      <stop
         id="stop246"
         offset="0"
         style="stop-opacity:1;stop-color:#40b8ff" />
      <stop
         id="stop248"
         offset="0.00657445"
         style="stop-opacity:1;stop-color:#40b9ff" />
      <stop
         id="stop250"
         offset="0.2601"
         style="stop-opacity:1;stop-color:#40ceff" />
      <stop
         id="stop252"
         offset="0.5122"
         style="stop-opacity:1;stop-color:#40ddff" />
      <stop
         id="stop254"
         offset="0.7604"
         style="stop-opacity:1;stop-color:#40e7ff" />
      <stop
         id="stop256"
         offset="1"
         style="stop-opacity:1;stop-color:#40eaff" />
    </linearGradient>
    <clipPath
       id="clipPath270"
       clipPathUnits="userSpaceOnUse">
      <path
         inkscape:connector-curvature="0"
         id="path268"
         d="M 370.285,341.297 225.137,423.77 c -4.024,2.281 -7.832,3.363 -11.223,3.363 -3.457,0 -6.473,-1.125 -8.828,-3.246 l -0.731,0.734 v 0 c 0.231,0.242 0.465,0.477 0.711,0.699 0.008,0.008 0.02,0.016 0.028,0.024 2.336,2.105 5.32,3.23 8.746,3.25 v 0 c 0.008,0 0.019,0 0.031,0 0.016,0 0.027,0 0.043,0 3.391,0 7.199,-1.082 11.223,-3.364 l 146.082,-83 -0.004,-0.003 -0.93,-0.93" />
    </clipPath>
    <linearGradient
       id="linearGradient282"
       spreadMethod="pad"
       gradientTransform="matrix(3.5851044,3.5851044,3.5851044,-3.5851044,-104.77092,141.83994)"
       gradientUnits="userSpaceOnUse"
       y2="0"
       x2="1"
       y1="0"
       x1="0">
      <stop
         id="stop272"
         offset="0"
         style="stop-opacity:1;stop-color:#65b895" />
      <stop
         id="stop274"
         offset="0.0685"
         style="stop-opacity:1;stop-color:#62bd95" />
      <stop
         id="stop276"
         offset="0.4762"
         style="stop-opacity:1;stop-color:#50db97" />
      <stop
         id="stop278"
         offset="0.8009"
         style="stop-opacity:1;stop-color:#44ed98" />
      <stop
         id="stop280"
         offset="1"
         style="stop-opacity:1;stop-color:#40f498" />
    </linearGradient>
  </defs>
  <sodipodi:namedview
     id="base"
     pagecolor="#ffffff"
     bordercolor="#666666"
     borderopacity="1.0"
     inkscape:pageopacity="0.0"
     inkscape:pageshadow="2"
     inkscape:zoom="5.6"
     inkscape:cx="92.227997"
     inkscape:cy="56.142677"
     inkscape:document-units="mm"
     inkscape:current-layer="layer1"
     showgrid="false"
     inkscape:window-width="2000"
     inkscape:window-height="1527"
     inkscape:window-x="1168"
     inkscape:window-y="183"
     inkscape:window-maximized="0" />
  <metadata
     id="metadata5">
    <rdf:RDF>
      <cc:Work
         rdf:about="">
        <dc:format>image/svg+xml</dc:format>
        <dc:type
           rdf:resource="http://purl.org/dc/dcmitype/StillImage" />
        <dc:title></dc:title>
      </cc:Work>
    </rdf:RDF>
  </metadata>
  <g
     inkscape:label="Ebene 1"
     inkscape:groupmode="layer"
     id="layer1"
     transform="translate(107.34524,-141.77778)">
    <g
       id="g664">
      <path
         d="m -61.484128,155.88889 h -44.097222 c -0.97014,0 -1.76389,-0.79375 -1.76389,-1.76389 v -10.58333 c 0,-0.97014 0.79375,-1.76389 1.76389,-1.76389 h 44.097222 c 0.970139,0 1.763889,0.79375 1.763889,1.76389 V 154.125 c 0,0.97014 -0.79375,1.76389 -1.763889,1.76389"
         style="fill:#000000;fill-opacity:1;fill-rule:nonzero;stroke:none;stroke-width:0.03527778"
         id="path24"
         inkscape:connector-curvature="0" />
      <path
         d="m -61.484128,141.77778 h -44.097222 c -0.97014,0 -1.76389,0.79375 -1.76389,1.76389 V 154.125 c 0,0.97014 0.79375,1.76389 1.76389,1.76389 h 44.097222 c 0.970139,0 1.763889,-0.79375 1.763889,-1.76389 v -10.58333 c 0,-0.97014 -0.79375,-1.76389 -1.763889,-1.76389 m 0,0.28222 c 0.817033,0 1.481667,0.66478 1.481667,1.48167 V 154.125 c 0,0.81704 -0.664634,1.48181 -1.481667,1.48181 h -44.097222 c -0.8169,0 -1.48167,-0.66477 -1.48167,-1.48181 v -10.58333 c 0,-0.81689 0.66477,-1.48167 1.48167,-1.48167 h 44.097222"
         style="fill:#a6a6a6;fill-opacity:1;fill-rule:nonzero;stroke:none;stroke-width:0.03527778"
         id="path26"
         inkscape:connector-curvature="0" />
      <path
         d="m -69.620595,152.36111 h 0.658283 v -4.41014 h -0.658283 z m 5.929136,-2.82151 -0.754591,1.91202 h -0.02258 l -0.783167,-1.91202 h -0.709083 l 1.174397,2.67239 -0.669572,1.4865 h 0.686858 l 1.80975,-4.15889 z m -3.733094,2.3206 c -0.2159,0 -0.516467,-0.10777 -0.516467,-0.37454 0,-0.34039 0.37465,-0.47089 0.697794,-0.47089 0.289631,0 0.42545,0.0624 0.601487,0.14761 -0.05115,0.40844 -0.402873,0.69782 -0.782814,0.69782 z m 0.07937,-2.41709 c -0.476603,0 -0.970139,0.21001 -1.174398,0.67525 l 0.5842,0.24391 c 0.124884,-0.24391 0.357364,-0.32342 0.601487,-0.32342 0.34043,0 0.686505,0.20436 0.69215,0.56748 v 0.0453 c -0.119239,-0.0681 -0.374298,-0.17018 -0.686506,-0.17018 -0.629708,0 -1.271058,0.346 -1.271058,0.99286 0,0.59009 0.516466,0.97028 1.095022,0.97028 0.442736,0 0.686505,-0.19858 0.839964,-0.43117 h 0.02258 v 0.34036 h 0.635352 v -1.69086 c 0,-0.78285 -0.5842,-1.21984 -1.338791,-1.21984 z m -4.068234,0.63334 h -0.936272 v -1.51168 h 0.936272 c 0.492125,0 0.771525,0.40745 0.771525,0.75582 0,0.34177 -0.2794,0.75586 -0.771525,0.75586 z m -0.01693,-2.12548 h -1.57727 v 4.41014 h 0.657931 v -1.67086 h 0.919339 c 0.729544,0 1.446741,-0.52821 1.446741,-1.36966 0,-0.84141 -0.717197,-1.36962 -1.446741,-1.36962 z m -8.601076,3.91005 c -0.454766,0 -0.835519,-0.38076 -0.835519,-0.90371 0,-0.52847 0.380753,-0.915 0.835519,-0.915 0.44898,0 0.801335,0.38653 0.801335,0.915 0,0.52295 -0.352355,0.90371 -0.801335,0.90371 z m 0.755862,-2.07448 h -0.02275 c -0.147708,-0.17614 -0.432012,-0.33528 -0.790011,-0.33528 -0.750217,0 -1.437852,0.65924 -1.437852,1.50605 0,0.84116 0.687635,1.49475 1.437852,1.49475 0.357999,0 0.642303,-0.15917 0.790011,-0.34092 h 0.02275 v 0.21593 c 0,0.57411 -0.306882,0.88099 -0.801335,0.88099 -0.403507,0 -0.653591,-0.28995 -0.756003,-0.53428 l -0.573934,0.23869 c 0.164818,0.39783 0.602474,0.88664 1.329937,0.88664 0.772936,0 1.426528,-0.45477 1.426528,-1.56299 v -2.69391 h -0.625193 z m 1.079817,2.57457 h 0.659272 v -4.41028 h -0.659272 z m 1.631174,-1.45492 c -0.01707,-0.57976 0.448981,-0.87521 0.784261,-0.87521 0.26162,0 0.483164,0.13063 0.556895,0.31835 z m 2.046006,-0.5001 c -0.124883,-0.33542 -0.505884,-0.95483 -1.284499,-0.95483 -0.772937,0 -1.415098,0.60812 -1.415098,1.5004 0,0.84116 0.636517,1.5004 1.488969,1.5004 0.687811,0 1.085745,-0.42058 1.250492,-0.66492 l -0.511528,-0.34106 c -0.170392,0.25012 -0.403578,0.41494 -0.738964,0.41494 -0.33528,0 -0.573934,-0.1535 -0.727463,-0.45463 l 2.006177,-0.82984 z m -15.983727,-0.49445 v 0.63651 h 1.523118 c -0.04547,0.35804 -0.164818,0.61945 -0.34671,0.80134 -0.22158,0.22172 -0.56829,0.46605 -1.176408,0.46605 -0.937789,0 -1.670897,-0.75586 -1.670897,-1.69361 0,-0.93776 0.733108,-1.69372 1.670897,-1.69372 0.505848,0 0.875171,0.19896 1.148009,0.45473 l 0.448981,-0.44895 c -0.380754,-0.36382 -0.886637,-0.6423 -1.59699,-0.6423 -1.2845,0 -2.364317,1.04577 -2.364317,2.33024 0,1.28446 1.079817,2.33013 2.364317,2.33013 0.69342,0 1.216236,-0.22722 1.625388,-0.65359 0.420582,-0.42058 0.551357,-1.01163 0.551357,-1.48897 0,-0.14789 -0.01132,-0.28416 -0.03419,-0.39786 z m 3.90839,1.94938 c -0.454766,0 -0.846949,-0.37511 -0.846949,-0.90936 0,-0.53993 0.392183,-0.90935 0.846949,-0.90935 0.454589,0 0.846772,0.36942 0.846772,0.90935 0,0.53425 -0.392183,0.90936 -0.846772,0.90936 z m 0,-2.40976 c -0.829875,0 -1.50622,0.63084 -1.50622,1.5004 0,0.86388 0.676345,1.5004 1.50622,1.5004 0.829698,0 1.506043,-0.63652 1.506043,-1.5004 0,-0.86956 -0.676345,-1.5004 -1.506043,-1.5004 z m 3.28549,2.40976 c -0.45459,0 -0.846808,-0.37511 -0.846808,-0.90936 0,-0.53993 0.392218,-0.90935 0.846808,-0.90935 0.454625,0 0.846808,0.36942 0.846808,0.90935 0,0.53425 -0.392183,0.90936 -0.846808,0.90936 z m 0,-2.40976 c -0.829839,0 -1.506044,0.63084 -1.506044,1.5004 0,0.86388 0.676205,1.5004 1.506044,1.5004 0.829733,0 1.506079,-0.63652 1.506079,-1.5004 0,-0.86956 -0.676346,-1.5004 -1.506079,-1.5004"
         style="fill:#ffffff;fill-opacity:1;fill-rule:nonzero;stroke:none;stroke-width:0.03527778"
         id="path28"
         inkscape:connector-curvature="0" />
      <path
         d="m -103.63762,153.20408 -0.0262,-0.0251 c -0.10266,-0.10862 -0.16326,-0.27728 -0.16326,-0.49568 v 0.0514 0 -7.80204 c 0,-7e-4 0,-0.001 0,-0.002 0,6.7e-4 0,0.001 0,0.002 v 0.0515 c 0,-0.2365 0.0707,-0.41465 0.18905,-0.52147 l 4.370845,4.37074 -4.370425,4.37046 m -0.18947,-8.27363 c 0,-0.0194 5.2e-4,-0.0383 0.002,-0.0569 -9.9e-4,0.0185 -0.002,0.0375 -0.002,0.0569 m 0.002,-0.0577 c 0,-2.5e-4 0,-5.3e-4 1.1e-4,-8.1e-4 -1.1e-4,2.8e-4 -1.1e-4,5.6e-4 -1.1e-4,8.1e-4 m 1.1e-4,-0.002 c 0,-1.4e-4 0,-2.8e-4 0,-4.2e-4 0,1.4e-4 0,2.8e-4 0,4.2e-4"
         style="fill:url(#linearGradient50);fill-opacity:1;fill-rule:nonzero;stroke:none;stroke-width:0.03527778"
         id="path52"
         inkscape:connector-curvature="0" />
      <path
         d="m -97.810469,150.3427 v 0 l 0.03323,-0.0189 1.726107,-0.98076 c 0.164571,-0.0936 0.274249,-0.20697 0.328965,-0.32699 -0.05457,0.12002 -0.164289,0.23358 -0.328965,0.32714 l -1.726107,0.98075 -0.03323,0.0187 m 4.23e-4,-0.0517 -1.457149,-1.45739 1.457008,-1.45715 1.759056,0.99935 c 0.223379,0.12693 0.348791,0.29051 0.369746,0.45766 0,1.4e-4 0,4.2e-4 0,6.7e-4 -0.02096,0.16676 -0.146367,0.33048 -0.369746,0.45737 l -1.758915,0.99949"
         style="fill:url(#linearGradient70);fill-opacity:1;fill-rule:nonzero;stroke:none;stroke-width:0.03527778"
         id="path72"
         inkscape:connector-curvature="0" />
      <path
         d="m -103.32604,153.37052 c -0.1221,0 -0.22864,-0.0397 -0.31172,-0.11466 l 1.4e-4,-1.4e-4 c 0.0831,0.075 0.18976,0.1148 0.31186,0.1148 0.0106,0 0.0213,-2.9e-4 0.0322,-8.1e-4 -0.011,5.2e-4 -0.0219,8.1e-4 -0.0325,8.1e-4 m 1.4e-4,-0.0517 c -0.1221,1.4e-4 -0.22864,-0.0397 -0.31172,-0.11466 v 0 -1e-4 l 4.370425,-4.37046 1.457149,1.45739 v 0 l -5.120644,2.90947 c -0.14167,0.0803 -0.2759,0.11836 -0.39521,0.11836 m -0.31295,-0.0639 c -0.008,-0.007 -0.0153,-0.0145 -0.0228,-0.0222 l 0.0228,0.0222"
         style="fill:url(#linearGradient86);fill-opacity:1;fill-rule:nonzero;stroke:none;stroke-width:0.03527778"
         id="path88"
         inkscape:connector-curvature="0" />
      <path
         d="m -99.267195,148.83362 v 0 l -4.370845,-4.37074 c 0.0831,-0.0748 0.18948,-0.11451 0.31143,-0.11451 0.11963,0 0.25397,0.0382 0.39592,0.11864 l 5.120503,2.90946 -1.457008,1.45715 m 1.489957,-1.49006 -5.153452,-2.92806 c -0.14195,-0.0805 -0.27629,-0.11867 -0.39592,-0.11867 -5.6e-4,0 -9.5e-4,0 -0.002,0 7.1e-4,0 10e-4,0 0.002,0 0.11934,0 0.25354,0.038 0.39535,0.11853 l 5.153452,2.9282 m -5.551982,-3.04673 v 0 0"
         style="fill:url(#linearGradient108);fill-opacity:1;fill-rule:nonzero;stroke:none;stroke-width:0.03527778"
         id="path110"
         inkscape:connector-curvature="0" />
      <path
         d="m -103.29352,153.36971 c 0.11091,-0.006 0.23372,-0.0445 0.36283,-0.11769 l 5.120221,-2.90932 v 0 l -5.120221,2.90932 c -0.12901,0.0733 -0.25192,0.11134 -0.36283,0.11769 m -0.34424,-0.11385 -0.001,-9.5e-4 c 3.9e-4,2.8e-4 8.1e-4,6.7e-4 0.001,9.5e-4 v 0 m -0.0238,-0.0231 -0.002,-0.002 v -1.4e-4 c 8.5e-4,8.2e-4 0.002,0.002 0.002,0.002"
         style="fill:#000000;fill-opacity:1;fill-rule:nonzero;stroke:none;stroke-width:0.03527778"
         id="path112"
         inkscape:connector-curvature="0" />
      <path
         d="m -97.810469,150.3427 v 0 l 0.03323,-0.0189 -0.03323,0.0189"
         style="fill:url(#linearGradient130);fill-opacity:1;fill-rule:nonzero;stroke:none;stroke-width:0.03527778"
         id="path132"
         inkscape:connector-curvature="0" />
      <path
         d="m -103.32576,153.37052 c -0.1221,0 -0.22878,-0.0398 -0.31186,-0.1148 l -1.4e-4,1.4e-4 c -2.8e-4,-2.8e-4 -7e-4,-6.7e-4 -0.001,-9.5e-4 l -0.0228,-0.0222 c -7e-4,-7e-4 -0.001,-0.002 -0.002,-0.002 l 0.0262,-0.0262 c 0.0831,0.075 0.18962,0.1148 0.31172,0.11466 0.11931,0 0.25354,-0.038 0.39521,-0.11836 l 5.120644,-2.90947 0.03281,0.0328 -0.03323,0.0189 -5.120224,2.90932 c -0.12911,0.0732 -0.25192,0.11134 -0.36283,0.11769 -0.0109,5.2e-4 -0.0217,8.1e-4 -0.0322,8.1e-4"
         style="fill:url(#linearGradient146);fill-opacity:1;fill-rule:nonzero;stroke:none;stroke-width:0.03527778"
         id="path148"
         inkscape:connector-curvature="0" />
      <path
         d="m -103.66383,153.23053 c -0.10266,-0.10862 -0.16326,-0.27728 -0.16326,-0.49568 v -1.4e-4 c 0,0.21854 0.0606,0.38706 0.16326,0.49568 v 0 0 1.4e-4"
         style="fill:#000000;fill-opacity:1;fill-rule:nonzero;stroke:none;stroke-width:0.03527778"
         id="path150"
         inkscape:connector-curvature="0" />
      <path
         d="m -103.66383,153.23039 v 0 c -0.10266,-0.10862 -0.16326,-0.27714 -0.16326,-0.49568 v -0.0514 c 0,0.2184 0.0606,0.38706 0.16326,0.49568 l 0.0262,0.0251 -0.0262,0.0263"
         style="fill:url(#linearGradient172);fill-opacity:1;fill-rule:nonzero;stroke:none;stroke-width:0.03527778"
         id="path174"
         inkscape:connector-curvature="0" />
      <path
         d="m -103.66383,153.23039 v 0 0 l 0.0262,-0.0263 v 1e-4 l -0.0262,0.0262"
         style="fill:url(#linearGradient188);fill-opacity:1;fill-rule:nonzero;stroke:none;stroke-width:0.03527778"
         id="path190"
         inkscape:connector-curvature="0" />
      <path
         d="m -95.722166,149.01607 c 0.02713,-0.0595 0.04078,-0.12072 0.04078,-0.18192 0,-1.1e-4 0,-2.5e-4 0,-2.5e-4 0,0.0613 -0.01365,0.12248 -0.04078,0.18217"
         style="fill:#000000;fill-opacity:1;fill-rule:nonzero;stroke:none;stroke-width:0.03527778"
         id="path192"
         inkscape:connector-curvature="0" />
      <path
         d="m -97.777238,150.32382 v 0 l -0.03281,-0.0328 1.758915,-0.99949 c 0.223379,-0.12689 0.348791,-0.29061 0.369746,-0.45737 0,0.0612 -0.01365,0.12238 -0.04078,0.18192 -0.05472,0.12002 -0.164394,0.23344 -0.328965,0.32699 l -1.726107,0.98076"
         style="fill:url(#linearGradient210);fill-opacity:1;fill-rule:nonzero;stroke:none;stroke-width:0.03527778"
         id="path212"
         inkscape:connector-curvature="0" />
      <path
         d="m -95.681385,148.83362 v -1.4e-4 c -1.41e-4,-0.18454 -0.123472,-0.36904 -0.369746,-0.50906 l -1.726107,-0.98076 h -1.41e-4 l 1.41e-4,-1e-4 1.726107,0.98072 c 0.246556,0.14002 0.370028,0.3248 0.369746,0.50934"
         style="fill:#404040;fill-opacity:1;fill-rule:nonzero;stroke:none;stroke-width:0.03527778"
         id="path214"
         inkscape:connector-curvature="0" />
      <path
         d="m -95.681385,148.83348 c -0.02096,-0.16715 -0.146367,-0.33073 -0.369746,-0.45766 l -1.759056,-0.99935 0.03281,-0.0328 h 1.41e-4 l 1.726107,0.98076 c 0.246274,0.14002 0.369605,0.32452 0.369746,0.50906"
         style="fill:url(#linearGradient232);fill-opacity:1;fill-rule:nonzero;stroke:none;stroke-width:0.03527778"
         id="path234"
         inkscape:connector-curvature="0" />
      <path
         d="m -103.82709,144.93087 c 0,-1.4e-4 0,-2.8e-4 0,-4.2e-4 0,1.4e-4 0,2.8e-4 0,4.2e-4 m 0.002,-0.0573 c 0,-2.9e-4 0,-5.7e-4 0,-8.5e-4 0,2.8e-4 0,5.6e-4 0,8.5e-4 m 1.1e-4,-0.002 c 0,-5.7e-4 0,-0.001 0,-0.002 0,5.6e-4 0,10e-4 0,0.002 m 0,-0.002 c 0.0204,-0.36241 0.21749,-0.57175 0.49625,-0.57298 -0.12086,7e-4 -0.22613,0.0404 -0.30854,0.11465 v -1.4e-4 l -9.9e-4,9.8e-4 c -0.009,0.008 -0.0169,0.0161 -0.0251,0.0247 v 0 c -0.0926,0.098 -0.15102,0.24473 -0.16164,0.43283"
         style="fill:#404040;fill-opacity:1;fill-rule:nonzero;stroke:none;stroke-width:0.03527778"
         id="path236"
         inkscape:connector-curvature="0" />
      <path
         d="m -103.82709,144.98435 v -0.0515 c 0,-7e-4 0,-0.001 0,-0.002 0,-1.4e-4 0,-2.8e-4 0,-4.2e-4 0,-0.0194 5.2e-4,-0.0385 0.002,-0.0569 0,-2.9e-4 0,-5.7e-4 0,-8.5e-4 0,-2.5e-4 0,-5.3e-4 1.1e-4,-8.1e-4 0,-5.7e-4 0,-0.001 0,-0.002 0,-1.4e-4 0,-2.8e-4 0,-4.2e-4 0.0106,-0.1881 0.069,-0.33486 0.16164,-0.43283 v 0 0 l 0.0258,0.0259 c -0.11839,0.10682 -0.18905,0.28497 -0.18905,0.52147 m 0.18834,-0.57203 9.9e-4,-9.8e-4 c -2.8e-4,4.2e-4 -7e-4,7e-4 -9.9e-4,9.8e-4"
         style="fill:url(#linearGradient258);fill-opacity:1;fill-rule:nonzero;stroke:none;stroke-width:0.03527778"
         id="path260"
         inkscape:connector-curvature="0" />
      <path
         d="m -103.32922,144.29683 c 2.8e-4,0 6.7e-4,0 0.001,0 -4.2e-4,0 -8.1e-4,0 -0.001,0"
         style="fill:#404040;fill-opacity:1;fill-rule:nonzero;stroke:none;stroke-width:0.03527778"
         id="path262"
         inkscape:connector-curvature="0" />
      <path
         d="m -97.810187,147.37647 -5.120503,-2.90946 c -0.14195,-0.0805 -0.27629,-0.11864 -0.39592,-0.11864 -0.12195,0 -0.22835,0.0397 -0.31143,0.11451 l -0.0258,-0.0259 v 0 c 0.008,-0.009 0.0164,-0.0168 0.0251,-0.0247 2.9e-4,-2.8e-4 7.1e-4,-5.6e-4 9.9e-4,-8.4e-4 0.0824,-0.0743 0.18768,-0.11395 0.30854,-0.11465 v 0 c 2.8e-4,0 6.7e-4,0 0.001,0 5.7e-4,0 9.6e-4,0 0.002,0 0.11963,0 0.25397,0.0382 0.39592,0.11867 l 5.153452,2.92806 -1.41e-4,10e-5 -0.03281,0.0328"
         style="fill:url(#linearGradient282);fill-opacity:1;fill-rule:nonzero;stroke:none;stroke-width:0.03527778"
         id="path284"
         inkscape:connector-curvature="0" />
      <path
         d="m -92.17181,146.41116 c -0.154058,0 -0.284974,-0.0427 -0.393418,-0.12858 -0.108162,-0.0857 -0.185349,-0.20627 -0.23054,-0.36199 l 0.248461,-0.10365 c 0.06297,0.22282 0.192229,0.33405 0.387209,0.33405 0.126118,0 0.223238,-0.0408 0.291042,-0.12266 0.06794,-0.0816 0.101988,-0.19265 0.101988,-0.33253 v -1.44858 h 0.272168 v 1.44269 c 0,0.23068 -0.06368,0.40845 -0.190853,0.53358 -0.127071,0.12523 -0.288996,0.18767 -0.486057,0.18767"
         style="fill:#ffffff;fill-opacity:1;fill-rule:nonzero;stroke:none;stroke-width:0.03527778"
         id="path286"
         inkscape:connector-curvature="0" />
      <path
         d="m -92.17181,146.41116 v -0.0353 c -0.147567,-2.9e-4 -0.269381,-0.0404 -0.371652,-0.12101 h 1.41e-4 c -0.101846,-0.0808 -0.174871,-0.19402 -0.218545,-0.34424 l -0.0339,0.01 0.01365,0.0325 0.24832,-0.10347 -0.01351,-0.0327 -0.0339,0.01 c 0.06297,0.23178 0.210961,0.3617 0.421111,0.35966 0.133279,5.3e-4 0.243523,-0.0447 0.318206,-0.13533 0.0744,-0.0896 0.110243,-0.20972 0.110102,-0.35514 v -1.4133 h 0.201612 v 1.40741 c -1.41e-4,0.22447 -0.06131,0.39105 -0.180269,0.50849 -0.120686,0.11836 -0.271604,0.17706 -0.461363,0.17749 v 0.0353 0.0353 c 0.204364,2.8e-4 0.377331,-0.0659 0.510857,-0.19777 0.135326,-0.1331 0.201613,-0.32205 0.201331,-0.55876 v -1.47796 h -0.307446 -0.03528 v 1.48385 c 0,0.13451 -0.03253,0.23622 -0.09384,0.30995 -0.06092,0.0729 -0.145097,0.1094 -0.263913,0.10996 -0.179811,-0.002 -0.290195,-0.0947 -0.353307,-0.30826 l -0.0109,-0.0383 -0.284974,0.11878 -0.02907,0.0121 0.0087,0.0303 c 0.04671,0.16122 0.127882,0.2891 0.242534,0.37991 v 0 c 0.114935,0.091 0.254918,0.13631 0.415326,0.13617 v -0.0353"
         style="fill:#ffffff;fill-opacity:1;fill-rule:nonzero;stroke:none;stroke-width:0.03527778"
         id="path288"
         inkscape:connector-curvature="0" />
      <path
         d="m -89.809857,144.50726 h -0.96393 v 0.67112 h 0.869139 v 0.25435 h -0.869139 v 0.67113 h 0.96393 v 0.26003 h -1.235816 v -2.11667 h 1.235816 v 0.26004"
         style="fill:#ffffff;fill-opacity:1;fill-rule:nonzero;stroke:none;stroke-width:0.03527778"
         id="path290"
         inkscape:connector-curvature="0" />
      <path
         d="m -89.809857,144.50726 v -0.0353 h -0.999208 v 0.74168 h 0.869139 v 0.18369 l -0.869139,1.1e-4 v 0.74168 h 0.96393 v 0.18947 h -1.16526 v -2.04611 h 1.16526 v 0.22476 h 0.03528 v -0.0353 0.0353 h 0.03528 v -0.26004 -0.0353 h -1.306372 v 2.18722 h 1.306372 v -0.29531 -0.0353 h -0.96393 v -0.60057 h 0.869138 v -0.28963 -0.0353 h -0.869138 v -0.60057 h 0.96393 v -0.0353 h -0.03528"
         style="fill:#ffffff;fill-opacity:1;fill-rule:nonzero;stroke:none;stroke-width:0.03527778"
         id="path292"
         inkscape:connector-curvature="0" />
      <path
         d="m -88.663047,146.36389 h -0.272168 v -1.85663 h -0.59115 v -0.26004 h 1.454503 v 0.26004 h -0.591185 v 1.85663"
         style="fill:#ffffff;fill-opacity:1;fill-rule:nonzero;stroke:none;stroke-width:0.03527778"
         id="path294"
         inkscape:connector-curvature="0" />
      <path
         d="m -88.663047,146.36389 v -0.0353 h -0.23689 v -1.85663 h -0.59115 v -0.18948 h 1.383947 v 0.18948 h -0.591185 v 1.89191 h 0.03528 v -0.0353 0.0353 h 0.03528 v -1.82136 h 0.591185 v -0.29531 -0.0353 h -1.525059 v 0.29531 0.0353 h 0.59115 v 1.85664 h 0.307446 0.03528 v -0.0353 h -0.03528"
         style="fill:#ffffff;fill-opacity:1;fill-rule:nonzero;stroke:none;stroke-width:0.03527778"
         id="path296"
         inkscape:connector-curvature="0" />
      <path
         d="m -87.846825,146.36389 v -0.28388 l 1.126137,-1.57275 h -1.079006 v -0.26004 h 1.395272 v 0.28388 l -1.126138,1.57276 h 1.138238 v 0.26003 h -1.454503"
         style="fill:#ffffff;fill-opacity:1;fill-rule:nonzero;stroke:none;stroke-width:0.03527778"
         id="path298"
         inkscape:connector-curvature="0" />
      <path
         d="m -87.846825,146.36389 h 0.03528 v -0.27259 l 1.159475,-1.61932 h -1.112344 v -0.18948 h 1.324716 v 0.23732 l -1.15951,1.61932 h 1.17161 v 0.18947 h -1.419225 v 0.0353 h 0.03528 -0.03528 v 0.0353 h 1.489781 v -0.29531 -0.0353 h -1.1049 l 1.092799,-1.52619 v -0.29517 -0.0353 h -1.465827 v 0.29531 0.0353 h 1.045669 l -1.0928,1.52619 v 0.29517 0.0353 h 0.03528 v -0.0353"
         style="fill:#ffffff;fill-opacity:1;fill-rule:nonzero;stroke:none;stroke-width:0.03527778"
         id="path300"
         inkscape:connector-curvature="0" />
      <path
         d="m -85.280931,146.36389 h -0.272168 v -1.85663 h -0.59115 v -0.26004 h 1.454503 v 0.26004 h -0.591185 v 1.85663"
         style="fill:#ffffff;fill-opacity:1;fill-rule:nonzero;stroke:none;stroke-width:0.03527778"
         id="path302"
         inkscape:connector-curvature="0" />
      <path
         d="m -85.280931,146.36389 v -0.0353 h -0.23689 v -1.85663 h -0.59115 v -0.18948 h 1.383947 v 0.18948 h -0.591185 v 1.89191 h 0.03528 v -0.0353 0.0353 h 0.03528 v -1.82136 h 0.591185 v -0.29531 -0.0353 h -1.525059 v 0.29531 0.0353 h 0.59115 v 1.85664 h 0.307446 0.03528 v -0.0353 h -0.03528"
         style="fill:#ffffff;fill-opacity:1;fill-rule:nonzero;stroke:none;stroke-width:0.03527778"
         id="path304"
         inkscape:connector-curvature="0" />
      <path
         d="m -83.365171,146.10386 h 0.546947 c 0.104457,0 0.189053,-0.0365 0.254247,-0.10968 0.06519,-0.0726 0.09758,-0.15258 0.09758,-0.23939 0,-0.0867 -0.03351,-0.16592 -0.100753,-0.23785 -0.06671,-0.0719 -0.154623,-0.10802 -0.263208,-0.10802 h -0.534811 z m 0,-0.94919 h 0.493466 c 0.102658,0 0.185067,-0.0338 0.247085,-0.10198 0.06202,-0.068 0.09303,-0.14221 0.09303,-0.2231 0,-0.0807 -0.03006,-0.1549 -0.09028,-0.22158 -0.05994,-0.0671 -0.139171,-0.10075 -0.237702,-0.10075 h -0.505601 z m -0.271745,1.20922 v -2.11667 h 0.765211 c 0.165805,0 0.309103,0.0549 0.430388,0.16398 0.12125,0.10957 0.181893,0.24694 0.181893,0.41246 0,0.10044 -0.02618,0.1892 -0.07856,0.2661 -0.05193,0.0769 -0.121532,0.13505 -0.20835,0.17445 v 0.0117 c 0.104316,0.0354 0.190182,0.0966 0.25728,0.18327 0.06682,0.0868 0.100577,0.18743 0.100577,0.30166 0,0.17336 -0.06364,0.31722 -0.190852,0.43149 -0.127036,0.11437 -0.277249,0.17155 -0.451027,0.17155 h -0.806556"
         style="fill:#ffffff;fill-opacity:1;fill-rule:nonzero;stroke:none;stroke-width:0.03527778"
         id="path306"
         inkscape:connector-curvature="0" />
      <path
         d="m -83.365171,146.10386 v 0.0353 h 0.546947 c 0.11243,4.2e-4 0.209444,-0.0409 0.280564,-0.12143 v 0 c 0.06988,-0.0776 0.106645,-0.16715 0.106539,-0.26292 1.06e-4,-0.0959 -0.03806,-0.18507 -0.110137,-0.26194 v 0 c -0.07317,-0.0793 -0.172791,-0.11963 -0.289102,-0.11921 h -0.570089 v 0.7655 h 0.03528 v -0.0353 h 0.03528 v -0.65966 h 0.499533 c 0.100895,3.9e-4 0.176953,0.0324 0.237455,0.0967 v 0 c 0.06226,0.0672 0.09095,0.13656 0.09123,0.21386 -2.82e-4,0.0778 -0.02826,0.14816 -0.08862,0.21593 v 0 c -0.05913,0.0656 -0.131762,0.0973 -0.227929,0.0979 h -0.546947 v 0.0353 h 0.03528 z m 0,-0.94919 v 0.0353 h 0.493466 c 0.110243,3.9e-4 0.204787,-0.0376 0.27312,-0.11356 v 1.4e-4 c 0.06685,-0.0728 0.102553,-0.15684 0.10227,-0.24694 2.83e-4,-0.0896 -0.03418,-0.17335 -0.09934,-0.24529 l 1.06e-4,1.4e-4 c -0.06625,-0.0747 -0.157621,-0.11288 -0.264019,-0.11246 h -0.540879 v 0.71797 h 0.03528 v -0.0353 h 0.03528 v -0.61214 h 0.470323 c 0.09066,5.7e-4 0.157798,0.0295 0.211385,0.0889 l 1.41e-4,1.5e-4 c 0.05539,0.0617 0.08089,0.12622 0.08117,0.19801 -2.82e-4,0.0715 -0.0266,0.13628 -0.08379,0.19925 v 1.4e-4 c -0.05553,0.0605 -0.1258,0.09 -0.22105,0.0904 h -0.493466 v 0.0353 h 0.03528 z m -0.271745,1.20922 h 0.03528 v -2.08139 h 0.729933 c 0.158079,2.8e-4 0.291182,0.0513 0.406823,0.15491 h -1.41e-4 c 0.11437,0.10389 0.169898,0.22944 0.170321,0.38625 -1.41e-4,0.0944 -0.02427,0.1753 -0.07236,0.24624 h -1.41e-4 c -0.04851,0.0717 -0.11243,0.12513 -0.193745,0.16221 l -0.02067,0.009 v 0.0344 0.0252 l 0.02385,0.008 c 0.09825,0.0337 0.177623,0.0901 0.240876,0.17159 l -1.41e-4,-1.4e-4 c 0.06216,0.081 0.09317,0.17279 0.09327,0.28014 -3.89e-4,0.16482 -0.05895,0.29669 -0.179141,0.40531 -0.121391,0.10873 -0.26155,0.16217 -0.427461,0.16245 h -0.806556 v 0.0353 h 0.03528 -0.03528 v 0.0353 h 0.806556 c 0.181504,2.8e-4 0.341771,-0.0606 0.474592,-0.18066 0.134091,-0.11977 0.202988,-0.27562 0.202565,-0.45766 1.41e-4,-0.12111 -0.03637,-0.23054 -0.107879,-0.32314 l -1.41e-4,-1.4e-4 c -0.07112,-0.0918 -0.163301,-0.15766 -0.273827,-0.19498 l -0.01129,0.0333 h 0.03528 v -0.0117 h -0.03528 l 0.01461,0.0321 c 0.09218,-0.0417 0.167428,-0.10446 0.222955,-0.18687 l -1.41e-4,1.4e-4 c 0.05666,-0.0828 0.08491,-0.17942 0.08477,-0.28593 3.89e-4,-0.17406 -0.06533,-0.32342 -0.193498,-0.43864 l -8.12e-4,-6.7e-4 6.71e-4,6.7e-4 c -0.126894,-0.11479 -0.280423,-0.17336 -0.453919,-0.17307 h -0.800489 v 2.18722 h 0.03528 v -0.0353"
         style="fill:#ffffff;fill-opacity:1;fill-rule:nonzero;stroke:none;stroke-width:0.03527778"
         id="path308"
         inkscape:connector-curvature="0" />
      <path
         d="m -80.586481,144.50726 h -0.963966 v 0.67112 h 0.869139 v 0.25435 h -0.869139 v 0.67113 h 0.963966 v 0.26003 h -1.235852 v -2.11667 h 1.235852 v 0.26004"
         style="fill:#ffffff;fill-opacity:1;fill-rule:nonzero;stroke:none;stroke-width:0.03527778"
         id="path310"
         inkscape:connector-curvature="0" />
      <path
         d="m -80.586481,144.50726 v -0.0353 h -0.999244 v 0.74168 h 0.869139 v 0.18369 l -0.869139,1.1e-4 v 0.74168 h 0.963966 v 0.18947 h -1.165296 v -2.04611 h 1.165296 v 0.22476 h 0.03528 v -0.0353 0.0353 h 0.03528 v -0.26004 -0.0353 h -1.306406 v 2.18722 h 1.306406 v -0.29531 -0.0353 h -0.963965 v -0.60057 h 0.869139 v -0.28963 -0.0353 h -0.869139 v -0.60057 h 0.963965 v -0.0353 h -0.03528"
         style="fill:#ffffff;fill-opacity:1;fill-rule:nonzero;stroke:none;stroke-width:0.03527778"
         id="path312"
         inkscape:connector-curvature="0" />
      <path
         d="m -80.160679,146.36389 v -2.11667 h 0.271886 v 2.11667 h -0.271886"
         style="fill:#ffffff;fill-opacity:1;fill-rule:nonzero;stroke:none;stroke-width:0.03527778"
         id="path314"
         inkscape:connector-curvature="0" />
      <path
         d="m -80.160679,146.36389 h 0.03528 v -2.08139 h 0.20133 v 2.04611 h -0.236608 v 0.0353 h 0.03528 -0.03528 v 0.0353 h 0.271886 0.03528 v -2.18722 h -0.307164 -0.03528 v 2.18722 h 0.03528 v -0.0353"
         style="fill:#ffffff;fill-opacity:1;fill-rule:nonzero;stroke:none;stroke-width:0.03527778"
         id="path316"
         inkscape:connector-curvature="0" />
    </g>
  </g>
</svg>
